PathFileType	4	(X/Y/Z)	C:/Users/beibeiliu/ov580/test_trc/capture2\sequence.31_training_dense_right.trc
DataRate	CameraRate	NumFrames	NumMarkers	Units	OrigDataRate	OrigDataStartFrame	OrigNumFrames
120	120	10	19	mm	120	1	400
Frame#	Time	ThumbCMC			ThumbMCP			ThumbIP			ThumbTip			IndexMCP			IndexPIP			IndexTip			MiddleMCP			MiddlePIP			MiddleTip			RingMCP			RingPIP			RingTip			PinkyMCP			PinkyPIP			PinkyTip			BackHand1			BackHand2			BackHand3	
		X0	Y0	Z0	X1	Y1	Z1	X2	Y2	Z2	X3	Y3	Z3	X4	Y4	Z4	X5	Y5	Z5	X6	Y6	Z6	X7	Y7	Z7	X8	Y8	Z8	X9	Y9	Z9	X10	Y10	Z10	X11	Y11	Z11	X12	Y12	Z12	X13	Y13	Z13	X14	Y14	Z14	X15	Y15	Z15	X16	Y16	Z16	X17	Y17	Z17	X18	Y18	Z18	
0	0	90.5203	44.1259	26.8758	69.0515	32.0467	8.02815	57.5888	25.2124	-16.058	48.7795	19.9421	-35.0485	106.04	51.5038	-46.6309	103.931	46.3997	-74.3309	101.523	46.7356	-95.0447	135.802	53.9456	-50.1564	136.899	49.2167	-74.8163	145.621	47.9151	-102.098	154.579	49.7338	-43.7861	162.33	46.3825	-66.8348	172.516	45.4843	-91.5155	173.981	43.0444	-27.91	187.502	38.8934	-43.5575	203.011	42.3787	-57.2958	146.278	63.7289	4.41073	141.462	70.5439	34.6685	113.293	66.5	16.3285	
1	0.00833333	88.291	43.6645	22.1198	73.0597	31.2533	9.40569	58.9752	24.6191	-17.0265	45.6881	18.9248	-31.3811	105.684	51.0594	-46.2398	101.073	47.7075	-73.5198	104.861	46.1083	-98.5913	131.445	53.6243	-49.3951	136.177	48.9668	-78.8062	144.51	47.834	-104.122	151.946	49.8643	-46.1859	165.105	46.362	-62.9381	169.888	44.9835	-91.36	172.527	42.6284	-27.1496	187.578	38.9856	-44.4468	200.347	41.6166	-62.5877	145.651	63.0495	4.86418	141.567	69.2432	34.7187	112.621	67.1975	13.3918	
2	0.0166667	86.6771	43.8221	27.6743	73.2622	30.2856	7.25748	57.4084	24.0813	-15.6726	48.091	18.9213	-32.8857	105.732	51.0793	-46.3848	100.045	47.3508	-69.3639	104.984	46.2003	-94.9557	131.894	52.9533	-54.1339	135.263	48.548	-78.0419	144.478	46.681	-105.16	154.099	49.8338	-43.9548	160.459	45.8897	-63.552	169.609	43.6499	-89.9876	172.728	43.5328	-28.3032	186.069	37.6464	-42.0068	198.689	41.1722	-58.6817	146.556	62.9126	4.21374	144.882	69.5775	32.6245	114.426	67.7985	15.488	
3	0.025	85.8897	43.0762	25.0219	70.8129	30.0198	10.2973	58.0601	23.3769	-16.6431	45.5961	17.4424	-32.7239	103.479	50.6646	-44.1407	99.998	46.0528	-73.1957	105.741	45.2536	-96.1895	135.463	52.66	-51.0915	139.167	47.4341	-78.0764	146.223	44.54	-102.535	152.55	49.8393	-45.5793	162.111	45.6938	-66.983	167.864	42.4768	-90.6287	172.131	42.2657	-26.8007	183.863	36.4739	-40.488	201.646	40.0484	-61.0217	143.889	63.6119	4.05959	143.532	66.6829	35.8505	111.421	65.6424	12.238	
4	0.0333333	84.9247	43.3428	23.6585	72.1395	29.4536	9.19306	57.9226	23.0224	-15.1558	46.9061	16.4184	-33.7928	105.089	50.8793	-47.8176	99.8234	46.8953	-69.9642	106.061	44.374	-95.1849	130.348	52.7223	-48.2638	136.883	46.441	-78.0285	142.469	44.8084	-101.193	151.246	48.3555	-40.534	159.232	44.6377	-67.8735	167.99	43.1213	-91.8338	172.667	41.2552	-23.504	186.317	37.1158	-44.3887	201.857	38.3176	-61.3701	144.319	62.5815	7.66079	146.338	68.2563	36.0857	116.441	65.8987	16.7971	
5	0.0416667	85.9398	41.6444	22.596	74.4196	27.989	8.3366	60.5053	21.4035	-11.2893	49.0227	15.6414	-31.0263	102.407	48.962	-46.2773	104.193	45.2822	-72.5655	100.008	43.3469	-98.104	133.006	51.7809	-48.2799	138.819	46.7987	-74.3273	141.71	43.8061	-99.7468	151.071	47.8403	-44.2918	162.021	44.6287	-64.1513	165.617	41.1795	-88.3365	175.42	40.7226	-26.3255	183.477	36.634	-41.8161	203.99	39.9254	-61.2479	149.032	60.8501	5.4193	144.07	65.8815	33.0333	116.628	64.5963	12.7723	
6	0.05	88.5417	40.6483	23.3923	71.0449	28.4351	9.39465	56.0157	21.5318	-14.1882	45.814	14.8202	-30.2101	103.991	48.6186	-46.8258	99.179	44.5336	-73.0674	105.669	42.6241	-97.2971	130.593	51.6185	-50.1814	136.597	45.8348	-75.1439	142.835	42.7394	-102.079	155.409	48.0859	-43.7223	163.457	44.0146	-64.4216	169.502	41.3651	-87.9883	172.195	40.1659	-25.1499	188.343	34.947	-42.3364	204.232	38.9708	-61.4371	145.292	61.9183	7.29823	141.703	65.5198	34.7295	114.519	63.5748	12.994	
7	0.0583333	87.6499	40.5937	27.6804	72.1313	27.9458	9.06928	58.1449	21.1279	-13.2031	46.5872	15.2356	-32.2784	102.546	48.4997	-47.0808	103.032	42.8921	-74.71	103.776	41.5481	-99.6938	133.707	49.6927	-51.5511	137.797	44.1791	-76.5842	147.087	41.5009	-105.474	156.907	46.1506	-44.1372	165.477	42.5823	-65.3812	167.464	40.4956	-88.3199	172.693	39.6614	-23.8264	184.313	34.4253	-40.3945	203.363	39.718	-57.8196	145.868	61.9447	2.78727	142.894	66.2012	36.4677	112.567	64.2554	15.6026	
8	0.0666667	91.4574	40.8574	23.0877	72.8812	28.5344	9.74758	60.9564	22.3084	-11.3352	48.0889	15.9989	-29.8922	105.798	47.9609	-48.0768	102.628	43.9985	-72.648	106.225	42.0132	-94.548	135.332	50.104	-49.8357	140.131	43.284	-78.2433	144.344	40.2612	-99.596	153.823	46.5434	-40.5311	162.345	41.4815	-62.7583	170.43	39.682	-90.3634	175.406	38.779	-24.6843	185.221	32.8946	-42.9288	203.785	35.9663	-54.7817	151.33	61.6215	5.30358	147.931	65.022	34.1931	117.522	63.742	17.1919	
9	0.075	89.5991	43.227	27.6117	73.1205	29.2198	9.00881	60.0633	24.1136	-11.6197	48.0174	18.5959	-32.0623	109.103	49.5113	-48.0175	102.388	44.3279	-69.1742	106.319	40.9694	-97.4219	133.69	50.4027	-52.8608	140.553	43.0755	-77.9939	144.314	40.2805	-100.494	156.014	45.9144	-40.4454	162.321	40.7592	-62.9387	169.448	38.1541	-88.8987	178.265	37.2579	-24.02	186.821	32.0261	-41.9143	200.839	36.2635	-58.4999	147.537	58.6226	7.58319	149.456	63.2305	33.3474	120.925	65.7985	17.99	
